<svg xmlns="http://www.w3.org/2000/svg" xmlns:xlink="http://www.w3.org/1999/xlink" style="margin:auto;background:#31c2b8;display:block;z-index:1;position:relative" width="518.390625" height="322" preserveAspectRatio="xMidYMid" viewBox="0 0 518.390625 322">
<defs>
  <pattern id="pid-0.6846807595468851" x="0" y="0" width="163.84" height="163.84" patternUnits="userSpaceOnUse">
    <g transform="scale(0.64)"><g>
  <line x1="133.82396729856393" x2="117.5784193937534" y1="48.4183985302093" y2="64.66394643501984" stroke-width="5" stroke="#01cbe1" stroke-linecap="round"></line><line x1="133.82396729856393" x2="117.5784193937534" y1="-463.5816014697907" y2="-447.33605356498015" stroke-width="5" stroke="#01cbe1" stroke-linecap="round"></line><line x1="389.82396729856396" x2="373.5784193937534" y1="-463.5816014697907" y2="-447.33605356498015" stroke-width="5" stroke="#01cbe1" stroke-linecap="round"></line><line x1="645.823967298564" x2="629.5784193937534" y1="-463.5816014697907" y2="-447.33605356498015" stroke-width="5" stroke="#01cbe1" stroke-linecap="round"></line><line x1="133.82396729856393" x2="117.5784193937534" y1="-207.5816014697907" y2="-191.33605356498015" stroke-width="5" stroke="#01cbe1" stroke-linecap="round"></line><line x1="389.82396729856396" x2="373.5784193937534" y1="-207.5816014697907" y2="-191.33605356498015" stroke-width="5" stroke="#01cbe1" stroke-linecap="round"></line><line x1="645.823967298564" x2="629.5784193937534" y1="-207.5816014697907" y2="-191.33605356498015" stroke-width="5" stroke="#01cbe1" stroke-linecap="round"></line><line x1="133.82396729856393" x2="117.5784193937534" y1="48.4183985302093" y2="64.66394643501984" stroke-width="5" stroke="#01cbe1" stroke-linecap="round"></line><line x1="389.82396729856396" x2="373.5784193937534" y1="48.4183985302093" y2="64.66394643501984" stroke-width="5" stroke="#01cbe1" stroke-linecap="round"></line><line x1="645.823967298564" x2="629.5784193937534" y1="48.4183985302093" y2="64.66394643501984" stroke-width="5" stroke="#01cbe1" stroke-linecap="round"></line><line x1="46.22350011111331" x2="27.223939543161407" y1="59.18368824810932" y2="78.18324881606122" stroke-width="5" stroke="#01cbe1" stroke-linecap="round"></line><line x1="46.22350011111331" x2="27.223939543161407" y1="-452.8163117518907" y2="-433.8167511839388" stroke-width="5" stroke="#01cbe1" stroke-linecap="round"></line><line x1="302.2235001111133" x2="283.2239395431614" y1="-452.8163117518907" y2="-433.8167511839388" stroke-width="5" stroke="#01cbe1" stroke-linecap="round"></line><line x1="558.2235001111133" x2="539.2239395431614" y1="-452.8163117518907" y2="-433.8167511839388" stroke-width="5" stroke="#01cbe1" stroke-linecap="round"></line><line x1="46.22350011111331" x2="27.223939543161407" y1="-196.81631175189068" y2="-177.81675118393878" stroke-width="5" stroke="#01cbe1" stroke-linecap="round"></line><line x1="302.2235001111133" x2="283.2239395431614" y1="-196.81631175189068" y2="-177.81675118393878" stroke-width="5" stroke="#01cbe1" stroke-linecap="round"></line><line x1="558.2235001111133" x2="539.2239395431614" y1="-196.81631175189068" y2="-177.81675118393878" stroke-width="5" stroke="#01cbe1" stroke-linecap="round"></line><line x1="46.22350011111331" x2="27.223939543161407" y1="59.18368824810932" y2="78.18324881606122" stroke-width="5" stroke="#01cbe1" stroke-linecap="round"></line><line x1="302.2235001111133" x2="283.2239395431614" y1="59.18368824810932" y2="78.18324881606122" stroke-width="5" stroke="#01cbe1" stroke-linecap="round"></line><line x1="558.2235001111133" x2="539.2239395431614" y1="59.18368824810932" y2="78.18324881606122" stroke-width="5" stroke="#01cbe1" stroke-linecap="round"></line><line x1="241.31541334794443" x2="213.26342508816785" y1="39.9398639626642" y2="67.99185222244077" stroke-width="5" stroke="#01cbe1" stroke-linecap="round"></line><line x1="241.31541334794443" x2="213.26342508816785" y1="-472.0601360373358" y2="-444.0081477775592" stroke-width="5" stroke="#01cbe1" stroke-linecap="round"></line><line x1="497.3154133479444" x2="469.2634250881679" y1="-472.0601360373358" y2="-444.0081477775592" stroke-width="5" stroke="#01cbe1" stroke-linecap="round"></line><line x1="753.3154133479444" x2="725.2634250881679" y1="-472.0601360373358" y2="-444.0081477775592" stroke-width="5" stroke="#01cbe1" stroke-linecap="round"></line><line x1="241.31541334794443" x2="213.26342508816785" y1="-216.0601360373358" y2="-188.00814777755923" stroke-width="5" stroke="#01cbe1" stroke-linecap="round"></line><line x1="497.3154133479444" x2="469.2634250881679" y1="-216.0601360373358" y2="-188.00814777755923" stroke-width="5" stroke="#01cbe1" stroke-linecap="round"></line><line x1="753.3154133479444" x2="725.2634250881679" y1="-216.0601360373358" y2="-188.00814777755923" stroke-width="5" stroke="#01cbe1" stroke-linecap="round"></line><line x1="241.31541334794443" x2="213.26342508816785" y1="39.9398639626642" y2="67.99185222244077" stroke-width="5" stroke="#01cbe1" stroke-linecap="round"></line><line x1="497.3154133479444" x2="469.2634250881679" y1="39.9398639626642" y2="67.99185222244077" stroke-width="5" stroke="#01cbe1" stroke-linecap="round"></line><line x1="753.3154133479444" x2="725.2634250881679" y1="39.9398639626642" y2="67.99185222244077" stroke-width="5" stroke="#01cbe1" stroke-linecap="round"></line><line x1="91.81784076815079" x2="80.90344939569259" y1="237.15445469936128" y2="248.0688460718195" stroke-width="5" stroke="#01cbe1" stroke-linecap="round"></line><line x1="91.81784076815079" x2="80.90344939569259" y1="-274.8455453006387" y2="-263.9311539281805" stroke-width="5" stroke="#01cbe1" stroke-linecap="round"></line><line x1="347.8178407681508" x2="336.9034493956926" y1="-274.8455453006387" y2="-263.9311539281805" stroke-width="5" stroke="#01cbe1" stroke-linecap="round"></line><line x1="603.8178407681507" x2="592.9034493956926" y1="-274.8455453006387" y2="-263.9311539281805" stroke-width="5" stroke="#01cbe1" stroke-linecap="round"></line><line x1="91.81784076815079" x2="80.90344939569259" y1="-18.84554530063872" y2="-7.931153928180493" stroke-width="5" stroke="#01cbe1" stroke-linecap="round"></line><line x1="347.8178407681508" x2="336.9034493956926" y1="-18.84554530063872" y2="-7.931153928180493" stroke-width="5" stroke="#01cbe1" stroke-linecap="round"></line><line x1="603.8178407681507" x2="592.9034493956926" y1="-18.84554530063872" y2="-7.931153928180493" stroke-width="5" stroke="#01cbe1" stroke-linecap="round"></line><line x1="91.81784076815079" x2="80.90344939569259" y1="237.15445469936128" y2="248.0688460718195" stroke-width="5" stroke="#01cbe1" stroke-linecap="round"></line><line x1="347.8178407681508" x2="336.9034493956926" y1="237.15445469936128" y2="248.0688460718195" stroke-width="5" stroke="#01cbe1" stroke-linecap="round"></line><line x1="603.8178407681507" x2="592.9034493956926" y1="237.15445469936128" y2="248.0688460718195" stroke-width="5" stroke="#01cbe1" stroke-linecap="round"></line><line x1="231.81589793732874" x2="202.82845019168232" y1="169.035530377299" y2="198.02297812294543" stroke-width="5" stroke="#01cbe1" stroke-linecap="round"></line><line x1="231.81589793732874" x2="202.82845019168232" y1="-342.964469622701" y2="-313.97702187705454" stroke-width="5" stroke="#01cbe1" stroke-linecap="round"></line><line x1="487.8158979373287" x2="458.82845019168235" y1="-342.964469622701" y2="-313.97702187705454" stroke-width="5" stroke="#01cbe1" stroke-linecap="round"></line><line x1="743.8158979373287" x2="714.8284501916824" y1="-342.964469622701" y2="-313.97702187705454" stroke-width="5" stroke="#01cbe1" stroke-linecap="round"></line><line x1="231.81589793732874" x2="202.82845019168232" y1="-86.96446962270099" y2="-57.97702187705457" stroke-width="5" stroke="#01cbe1" stroke-linecap="round"></line><line x1="487.8158979373287" x2="458.82845019168235" y1="-86.96446962270099" y2="-57.97702187705457" stroke-width="5" stroke="#01cbe1" stroke-linecap="round"></line><line x1="743.8158979373287" x2="714.8284501916824" y1="-86.96446962270099" y2="-57.97702187705457" stroke-width="5" stroke="#01cbe1" stroke-linecap="round"></line><line x1="231.81589793732874" x2="202.82845019168232" y1="169.035530377299" y2="198.02297812294543" stroke-width="5" stroke="#01cbe1" stroke-linecap="round"></line><line x1="487.8158979373287" x2="458.82845019168235" y1="169.035530377299" y2="198.02297812294543" stroke-width="5" stroke="#01cbe1" stroke-linecap="round"></line><line x1="743.8158979373287" x2="714.8284501916824" y1="169.035530377299" y2="198.02297812294543" stroke-width="5" stroke="#01cbe1" stroke-linecap="round"></line><line x1="149.2858264120488" x2="122.47897923964794" y1="72.74620573239795" y2="99.55305290479882" stroke-width="5" stroke="#01cbe1" stroke-linecap="round"></line><line x1="149.2858264120488" x2="122.47897923964794" y1="-439.2537942676021" y2="-412.44694709520115" stroke-width="5" stroke="#01cbe1" stroke-linecap="round"></line><line x1="405.2858264120488" x2="378.47897923964797" y1="-439.2537942676021" y2="-412.44694709520115" stroke-width="5" stroke="#01cbe1" stroke-linecap="round"></line><line x1="661.2858264120488" x2="634.478979239648" y1="-439.2537942676021" y2="-412.44694709520115" stroke-width="5" stroke="#01cbe1" stroke-linecap="round"></line><line x1="149.2858264120488" x2="122.47897923964794" y1="-183.25379426760205" y2="-156.44694709520118" stroke-width="5" stroke="#01cbe1" stroke-linecap="round"></line><line x1="405.2858264120488" x2="378.47897923964797" y1="-183.25379426760205" y2="-156.44694709520118" stroke-width="5" stroke="#01cbe1" stroke-linecap="round"></line><line x1="661.2858264120488" x2="634.478979239648" y1="-183.25379426760205" y2="-156.44694709520118" stroke-width="5" stroke="#01cbe1" stroke-linecap="round"></line><line x1="149.2858264120488" x2="122.47897923964794" y1="72.74620573239795" y2="99.55305290479882" stroke-width="5" stroke="#01cbe1" stroke-linecap="round"></line><line x1="405.2858264120488" x2="378.47897923964797" y1="72.74620573239795" y2="99.55305290479882" stroke-width="5" stroke="#01cbe1" stroke-linecap="round"></line><line x1="661.2858264120488" x2="634.478979239648" y1="72.74620573239795" y2="99.55305290479882" stroke-width="5" stroke="#01cbe1" stroke-linecap="round"></line><line x1="194.40230709129455" x2="168.13166914645413" y1="133.411554322331" y2="159.68219226717142" stroke-width="5" stroke="#01cbe1" stroke-linecap="round"></line><line x1="194.40230709129455" x2="168.13166914645413" y1="-378.58844567766903" y2="-352.31780773282856" stroke-width="5" stroke="#01cbe1" stroke-linecap="round"></line><line x1="450.4023070912946" x2="424.1316691464541" y1="-378.58844567766903" y2="-352.31780773282856" stroke-width="5" stroke="#01cbe1" stroke-linecap="round"></line><line x1="706.4023070912946" x2="680.1316691464541" y1="-378.58844567766903" y2="-352.31780773282856" stroke-width="5" stroke="#01cbe1" stroke-linecap="round"></line><line x1="194.40230709129455" x2="168.13166914645413" y1="-122.588445677669" y2="-96.31780773282858" stroke-width="5" stroke="#01cbe1" stroke-linecap="round"></line><line x1="450.4023070912946" x2="424.1316691464541" y1="-122.588445677669" y2="-96.31780773282858" stroke-width="5" stroke="#01cbe1" stroke-linecap="round"></line><line x1="706.4023070912946" x2="680.1316691464541" y1="-122.588445677669" y2="-96.31780773282858" stroke-width="5" stroke="#01cbe1" stroke-linecap="round"></line><line x1="194.40230709129455" x2="168.13166914645413" y1="133.411554322331" y2="159.68219226717142" stroke-width="5" stroke="#01cbe1" stroke-linecap="round"></line><line x1="450.4023070912946" x2="424.1316691464541" y1="133.411554322331" y2="159.68219226717142" stroke-width="5" stroke="#01cbe1" stroke-linecap="round"></line><line x1="706.4023070912946" x2="680.1316691464541" y1="133.411554322331" y2="159.68219226717142" stroke-width="5" stroke="#01cbe1" stroke-linecap="round"></line><line x1="167.01780691453905" x2="159.65307564528985" y1="136.4022037373387" y2="143.76693500658791" stroke-width="5" stroke="#01cbe1" stroke-linecap="round"></line><line x1="167.01780691453905" x2="159.65307564528985" y1="-375.5977962626613" y2="-368.2330649934121" stroke-width="5" stroke="#01cbe1" stroke-linecap="round"></line><line x1="423.01780691453905" x2="415.65307564528985" y1="-375.5977962626613" y2="-368.2330649934121" stroke-width="5" stroke="#01cbe1" stroke-linecap="round"></line><line x1="679.017806914539" x2="671.6530756452898" y1="-375.5977962626613" y2="-368.2330649934121" stroke-width="5" stroke="#01cbe1" stroke-linecap="round"></line><line x1="167.01780691453905" x2="159.65307564528985" y1="-119.59779626266129" y2="-112.23306499341209" stroke-width="5" stroke="#01cbe1" stroke-linecap="round"></line><line x1="423.01780691453905" x2="415.65307564528985" y1="-119.59779626266129" y2="-112.23306499341209" stroke-width="5" stroke="#01cbe1" stroke-linecap="round"></line><line x1="679.017806914539" x2="671.6530756452898" y1="-119.59779626266129" y2="-112.23306499341209" stroke-width="5" stroke="#01cbe1" stroke-linecap="round"></line><line x1="167.01780691453905" x2="159.65307564528985" y1="136.4022037373387" y2="143.76693500658791" stroke-width="5" stroke="#01cbe1" stroke-linecap="round"></line><line x1="423.01780691453905" x2="415.65307564528985" y1="136.4022037373387" y2="143.76693500658791" stroke-width="5" stroke="#01cbe1" stroke-linecap="round"></line><line x1="679.017806914539" x2="671.6530756452898" y1="136.4022037373387" y2="143.76693500658791" stroke-width="5" stroke="#01cbe1" stroke-linecap="round"></line><line x1="38.56392219377497" x2="13.982552354831089" y1="176.09049174046928" y2="200.67186157941316" stroke-width="5" stroke="#01cbe1" stroke-linecap="round"></line><line x1="38.56392219377497" x2="13.982552354831089" y1="-335.90950825953075" y2="-311.3281384205868" stroke-width="5" stroke="#01cbe1" stroke-linecap="round"></line><line x1="294.56392219377494" x2="269.9825523548311" y1="-335.90950825953075" y2="-311.3281384205868" stroke-width="5" stroke="#01cbe1" stroke-linecap="round"></line><line x1="550.5639221937749" x2="525.9825523548311" y1="-335.90950825953075" y2="-311.3281384205868" stroke-width="5" stroke="#01cbe1" stroke-linecap="round"></line><line x1="38.56392219377497" x2="13.982552354831089" y1="-79.90950825953072" y2="-55.32813842058684" stroke-width="5" stroke="#01cbe1" stroke-linecap="round"></line><line x1="294.56392219377494" x2="269.9825523548311" y1="-79.90950825953072" y2="-55.32813842058684" stroke-width="5" stroke="#01cbe1" stroke-linecap="round"></line><line x1="550.5639221937749" x2="525.9825523548311" y1="-79.90950825953072" y2="-55.32813842058684" stroke-width="5" stroke="#01cbe1" stroke-linecap="round"></line><line x1="38.56392219377497" x2="13.982552354831089" y1="176.09049174046928" y2="200.67186157941316" stroke-width="5" stroke="#01cbe1" stroke-linecap="round"></line><line x1="294.56392219377494" x2="269.9825523548311" y1="176.09049174046928" y2="200.67186157941316" stroke-width="5" stroke="#01cbe1" stroke-linecap="round"></line><line x1="550.5639221937749" x2="525.9825523548311" y1="176.09049174046928" y2="200.67186157941316" stroke-width="5" stroke="#01cbe1" stroke-linecap="round"></line><line x1="30.069579222003444" x2="14.965942387923842" y1="0.1551607395476644" y2="15.258797573627266" stroke-width="5" stroke="#01cbe1" stroke-linecap="round"></line><line x1="30.069579222003444" x2="14.965942387923842" y1="-511.8448392604523" y2="-496.74120242637275" stroke-width="5" stroke="#01cbe1" stroke-linecap="round"></line><line x1="286.0695792220034" x2="270.96594238792386" y1="-511.8448392604523" y2="-496.74120242637275" stroke-width="5" stroke="#01cbe1" stroke-linecap="round"></line><line x1="542.0695792220034" x2="526.9659423879239" y1="-511.8448392604523" y2="-496.74120242637275" stroke-width="5" stroke="#01cbe1" stroke-linecap="round"></line><line x1="30.069579222003444" x2="14.965942387923842" y1="-255.84483926045235" y2="-240.74120242637272" stroke-width="5" stroke="#01cbe1" stroke-linecap="round"></line><line x1="286.0695792220034" x2="270.96594238792386" y1="-255.84483926045235" y2="-240.74120242637272" stroke-width="5" stroke="#01cbe1" stroke-linecap="round"></line><line x1="542.0695792220034" x2="526.9659423879239" y1="-255.84483926045235" y2="-240.74120242637272" stroke-width="5" stroke="#01cbe1" stroke-linecap="round"></line><line x1="30.069579222003444" x2="14.965942387923842" y1="0.1551607395476644" y2="15.258797573627266" stroke-width="5" stroke="#01cbe1" stroke-linecap="round"></line><line x1="286.0695792220034" x2="270.96594238792386" y1="0.1551607395476644" y2="15.258797573627266" stroke-width="5" stroke="#01cbe1" stroke-linecap="round"></line><line x1="542.0695792220034" x2="526.9659423879239" y1="0.1551607395476644" y2="15.258797573627266" stroke-width="5" stroke="#01cbe1" stroke-linecap="round"></line>
  <animateTransform attributeName="transform" type="translate" values="0 0;-256 256" keyTimes="0;1" repeatCount="indefinite" dur="5s"></animateTransform>
</g><g>
  <line x1="80.95927856365846" x2="68.37815174736376" y1="8.832864419815468" y2="21.41399123611016" stroke-width="5" stroke="#38e0f5" stroke-linecap="round"></line><line x1="80.95927856365846" x2="68.37815174736376" y1="-503.16713558018455" y2="-490.5860087638898" stroke-width="5" stroke="#38e0f5" stroke-linecap="round"></line><line x1="336.9592785636585" x2="324.37815174736375" y1="-503.16713558018455" y2="-490.5860087638898" stroke-width="5" stroke="#38e0f5" stroke-linecap="round"></line><line x1="592.9592785636585" x2="580.3781517473637" y1="-503.16713558018455" y2="-490.5860087638898" stroke-width="5" stroke="#38e0f5" stroke-linecap="round"></line><line x1="80.95927856365846" x2="68.37815174736376" y1="-247.16713558018452" y2="-234.58600876388985" stroke-width="5" stroke="#38e0f5" stroke-linecap="round"></line><line x1="336.9592785636585" x2="324.37815174736375" y1="-247.16713558018452" y2="-234.58600876388985" stroke-width="5" stroke="#38e0f5" stroke-linecap="round"></line><line x1="592.9592785636585" x2="580.3781517473637" y1="-247.16713558018452" y2="-234.58600876388985" stroke-width="5" stroke="#38e0f5" stroke-linecap="round"></line><line x1="80.95927856365846" x2="68.37815174736376" y1="8.832864419815468" y2="21.41399123611016" stroke-width="5" stroke="#38e0f5" stroke-linecap="round"></line><line x1="336.9592785636585" x2="324.37815174736375" y1="8.832864419815468" y2="21.41399123611016" stroke-width="5" stroke="#38e0f5" stroke-linecap="round"></line><line x1="592.9592785636585" x2="580.3781517473637" y1="8.832864419815468" y2="21.41399123611016" stroke-width="5" stroke="#38e0f5" stroke-linecap="round"></line><line x1="160.19794469812354" x2="140.25192023417054" y1="148.93783361812524" y2="168.88385808207823" stroke-width="5" stroke="#38e0f5" stroke-linecap="round"></line><line x1="160.19794469812354" x2="140.25192023417054" y1="-363.06216638187476" y2="-343.11614191792177" stroke-width="5" stroke="#38e0f5" stroke-linecap="round"></line><line x1="416.19794469812354" x2="396.25192023417054" y1="-363.06216638187476" y2="-343.11614191792177" stroke-width="5" stroke="#38e0f5" stroke-linecap="round"></line><line x1="672.1979446981236" x2="652.2519202341705" y1="-363.06216638187476" y2="-343.11614191792177" stroke-width="5" stroke="#38e0f5" stroke-linecap="round"></line><line x1="160.19794469812354" x2="140.25192023417054" y1="-107.06216638187476" y2="-87.11614191792177" stroke-width="5" stroke="#38e0f5" stroke-linecap="round"></line><line x1="416.19794469812354" x2="396.25192023417054" y1="-107.06216638187476" y2="-87.11614191792177" stroke-width="5" stroke="#38e0f5" stroke-linecap="round"></line><line x1="672.1979446981236" x2="652.2519202341705" y1="-107.06216638187476" y2="-87.11614191792177" stroke-width="5" stroke="#38e0f5" stroke-linecap="round"></line><line x1="160.19794469812354" x2="140.25192023417054" y1="148.93783361812524" y2="168.88385808207823" stroke-width="5" stroke="#38e0f5" stroke-linecap="round"></line><line x1="416.19794469812354" x2="396.25192023417054" y1="148.93783361812524" y2="168.88385808207823" stroke-width="5" stroke="#38e0f5" stroke-linecap="round"></line><line x1="672.1979446981236" x2="652.2519202341705" y1="148.93783361812524" y2="168.88385808207823" stroke-width="5" stroke="#38e0f5" stroke-linecap="round"></line><line x1="81.24950202349453" x2="65.82284836959218" y1="102.22852117658971" y2="117.65517483049206" stroke-width="5" stroke="#38e0f5" stroke-linecap="round"></line><line x1="81.24950202349453" x2="65.82284836959218" y1="-409.7714788234103" y2="-394.34482516950794" stroke-width="5" stroke="#38e0f5" stroke-linecap="round"></line><line x1="337.24950202349453" x2="321.8228483695922" y1="-409.7714788234103" y2="-394.34482516950794" stroke-width="5" stroke="#38e0f5" stroke-linecap="round"></line><line x1="593.2495020234945" x2="577.8228483695922" y1="-409.7714788234103" y2="-394.34482516950794" stroke-width="5" stroke="#38e0f5" stroke-linecap="round"></line><line x1="81.24950202349453" x2="65.82284836959218" y1="-153.7714788234103" y2="-138.34482516950794" stroke-width="5" stroke="#38e0f5" stroke-linecap="round"></line><line x1="337.24950202349453" x2="321.8228483695922" y1="-153.7714788234103" y2="-138.34482516950794" stroke-width="5" stroke="#38e0f5" stroke-linecap="round"></line><line x1="593.2495020234945" x2="577.8228483695922" y1="-153.7714788234103" y2="-138.34482516950794" stroke-width="5" stroke="#38e0f5" stroke-linecap="round"></line><line x1="81.24950202349453" x2="65.82284836959218" y1="102.22852117658971" y2="117.65517483049206" stroke-width="5" stroke="#38e0f5" stroke-linecap="round"></line><line x1="337.24950202349453" x2="321.8228483695922" y1="102.22852117658971" y2="117.65517483049206" stroke-width="5" stroke="#38e0f5" stroke-linecap="round"></line><line x1="593.2495020234945" x2="577.8228483695922" y1="102.22852117658971" y2="117.65517483049206" stroke-width="5" stroke="#38e0f5" stroke-linecap="round"></line><line x1="101.37102937529548" x2="85.92176009159746" y1="236.96783866515605" y2="252.41710794885407" stroke-width="5" stroke="#38e0f5" stroke-linecap="round"></line><line x1="101.37102937529548" x2="85.92176009159746" y1="-275.032161334844" y2="-259.5828920511459" stroke-width="5" stroke="#38e0f5" stroke-linecap="round"></line><line x1="357.3710293752955" x2="341.92176009159743" y1="-275.032161334844" y2="-259.5828920511459" stroke-width="5" stroke="#38e0f5" stroke-linecap="round"></line><line x1="613.3710293752955" x2="597.9217600915974" y1="-275.032161334844" y2="-259.5828920511459" stroke-width="5" stroke="#38e0f5" stroke-linecap="round"></line><line x1="101.37102937529548" x2="85.92176009159746" y1="-19.03216133484395" y2="-3.582892051145933" stroke-width="5" stroke="#38e0f5" stroke-linecap="round"></line><line x1="357.3710293752955" x2="341.92176009159743" y1="-19.03216133484395" y2="-3.582892051145933" stroke-width="5" stroke="#38e0f5" stroke-linecap="round"></line><line x1="613.3710293752955" x2="597.9217600915974" y1="-19.03216133484395" y2="-3.582892051145933" stroke-width="5" stroke="#38e0f5" stroke-linecap="round"></line><line x1="101.37102937529548" x2="85.92176009159746" y1="236.96783866515605" y2="252.41710794885407" stroke-width="5" stroke="#38e0f5" stroke-linecap="round"></line><line x1="357.3710293752955" x2="341.92176009159743" y1="236.96783866515605" y2="252.41710794885407" stroke-width="5" stroke="#38e0f5" stroke-linecap="round"></line><line x1="613.3710293752955" x2="597.9217600915974" y1="236.96783866515605" y2="252.41710794885407" stroke-width="5" stroke="#38e0f5" stroke-linecap="round"></line><line x1="55.891202203240596" x2="31.69405697561604" y1="14.193833338475887" y2="38.39097856610044" stroke-width="5" stroke="#38e0f5" stroke-linecap="round"></line><line x1="55.891202203240596" x2="31.69405697561604" y1="-497.8061666615241" y2="-473.60902143389956" stroke-width="5" stroke="#38e0f5" stroke-linecap="round"></line><line x1="311.8912022032406" x2="287.69405697561604" y1="-497.8061666615241" y2="-473.60902143389956" stroke-width="5" stroke="#38e0f5" stroke-linecap="round"></line><line x1="567.8912022032406" x2="543.694056975616" y1="-497.8061666615241" y2="-473.60902143389956" stroke-width="5" stroke="#38e0f5" stroke-linecap="round"></line><line x1="55.891202203240596" x2="31.69405697561604" y1="-241.80616666152412" y2="-217.60902143389956" stroke-width="5" stroke="#38e0f5" stroke-linecap="round"></line><line x1="311.8912022032406" x2="287.69405697561604" y1="-241.80616666152412" y2="-217.60902143389956" stroke-width="5" stroke="#38e0f5" stroke-linecap="round"></line><line x1="567.8912022032406" x2="543.694056975616" y1="-241.80616666152412" y2="-217.60902143389956" stroke-width="5" stroke="#38e0f5" stroke-linecap="round"></line><line x1="55.891202203240596" x2="31.69405697561604" y1="14.193833338475887" y2="38.39097856610044" stroke-width="5" stroke="#38e0f5" stroke-linecap="round"></line><line x1="311.8912022032406" x2="287.69405697561604" y1="14.193833338475887" y2="38.39097856610044" stroke-width="5" stroke="#38e0f5" stroke-linecap="round"></line><line x1="567.8912022032406" x2="543.694056975616" y1="14.193833338475887" y2="38.39097856610044" stroke-width="5" stroke="#38e0f5" stroke-linecap="round"></line><line x1="230.09628400640287" x2="211.17599478696837" y1="157.9153130866561" y2="176.8356023060906" stroke-width="5" stroke="#38e0f5" stroke-linecap="round"></line><line x1="230.09628400640287" x2="211.17599478696837" y1="-354.0846869133439" y2="-335.1643976939094" stroke-width="5" stroke="#38e0f5" stroke-linecap="round"></line><line x1="486.09628400640287" x2="467.1759947869684" y1="-354.0846869133439" y2="-335.1643976939094" stroke-width="5" stroke="#38e0f5" stroke-linecap="round"></line><line x1="742.0962840064028" x2="723.1759947869684" y1="-354.0846869133439" y2="-335.1643976939094" stroke-width="5" stroke="#38e0f5" stroke-linecap="round"></line><line x1="230.09628400640287" x2="211.17599478696837" y1="-98.08468691334389" y2="-79.1643976939094" stroke-width="5" stroke="#38e0f5" stroke-linecap="round"></line><line x1="486.09628400640287" x2="467.1759947869684" y1="-98.08468691334389" y2="-79.1643976939094" stroke-width="5" stroke="#38e0f5" stroke-linecap="round"></line><line x1="742.0962840064028" x2="723.1759947869684" y1="-98.08468691334389" y2="-79.1643976939094" stroke-width="5" stroke="#38e0f5" stroke-linecap="round"></line><line x1="230.09628400640287" x2="211.17599478696837" y1="157.9153130866561" y2="176.8356023060906" stroke-width="5" stroke="#38e0f5" stroke-linecap="round"></line><line x1="486.09628400640287" x2="467.1759947869684" y1="157.9153130866561" y2="176.8356023060906" stroke-width="5" stroke="#38e0f5" stroke-linecap="round"></line><line x1="742.0962840064028" x2="723.1759947869684" y1="157.9153130866561" y2="176.8356023060906" stroke-width="5" stroke="#38e0f5" stroke-linecap="round"></line><line x1="5.844678575448544" x2="-2.831566082392502" y1="200.96576770757378" y2="209.64201236541481" stroke-width="5" stroke="#38e0f5" stroke-linecap="round"></line><line x1="5.844678575448544" x2="-2.831566082392502" y1="-311.0342322924262" y2="-302.3579876345852" stroke-width="5" stroke="#38e0f5" stroke-linecap="round"></line><line x1="261.84467857544854" x2="253.1684339176075" y1="-311.0342322924262" y2="-302.3579876345852" stroke-width="5" stroke="#38e0f5" stroke-linecap="round"></line><line x1="517.8446785754486" x2="509.1684339176075" y1="-311.0342322924262" y2="-302.3579876345852" stroke-width="5" stroke="#38e0f5" stroke-linecap="round"></line><line x1="5.844678575448544" x2="-2.831566082392502" y1="-55.034232292426225" y2="-46.357987634585186" stroke-width="5" stroke="#38e0f5" stroke-linecap="round"></line><line x1="261.84467857544854" x2="253.1684339176075" y1="-55.034232292426225" y2="-46.357987634585186" stroke-width="5" stroke="#38e0f5" stroke-linecap="round"></line><line x1="517.8446785754486" x2="509.1684339176075" y1="-55.034232292426225" y2="-46.357987634585186" stroke-width="5" stroke="#38e0f5" stroke-linecap="round"></line><line x1="5.844678575448544" x2="-2.831566082392502" y1="200.96576770757378" y2="209.64201236541481" stroke-width="5" stroke="#38e0f5" stroke-linecap="round"></line><line x1="261.84467857544854" x2="253.1684339176075" y1="200.96576770757378" y2="209.64201236541481" stroke-width="5" stroke="#38e0f5" stroke-linecap="round"></line><line x1="517.8446785754486" x2="509.1684339176075" y1="200.96576770757378" y2="209.64201236541481" stroke-width="5" stroke="#38e0f5" stroke-linecap="round"></line><line x1="126.58088912225048" x2="113.09504893541384" y1="79.82572651251274" y2="93.31156669934938" stroke-width="5" stroke="#38e0f5" stroke-linecap="round"></line><line x1="126.58088912225048" x2="113.09504893541384" y1="-432.17427348748726" y2="-418.6884333006506" stroke-width="5" stroke="#38e0f5" stroke-linecap="round"></line><line x1="382.5808891222505" x2="369.09504893541384" y1="-432.17427348748726" y2="-418.6884333006506" stroke-width="5" stroke="#38e0f5" stroke-linecap="round"></line><line x1="638.5808891222505" x2="625.0950489354138" y1="-432.17427348748726" y2="-418.6884333006506" stroke-width="5" stroke="#38e0f5" stroke-linecap="round"></line><line x1="126.58088912225048" x2="113.09504893541384" y1="-176.17427348748726" y2="-162.68843330065062" stroke-width="5" stroke="#38e0f5" stroke-linecap="round"></line><line x1="382.5808891222505" x2="369.09504893541384" y1="-176.17427348748726" y2="-162.68843330065062" stroke-width="5" stroke="#38e0f5" stroke-linecap="round"></line><line x1="638.5808891222505" x2="625.0950489354138" y1="-176.17427348748726" y2="-162.68843330065062" stroke-width="5" stroke="#38e0f5" stroke-linecap="round"></line><line x1="126.58088912225048" x2="113.09504893541384" y1="79.82572651251274" y2="93.31156669934938" stroke-width="5" stroke="#38e0f5" stroke-linecap="round"></line><line x1="382.5808891222505" x2="369.09504893541384" y1="79.82572651251274" y2="93.31156669934938" stroke-width="5" stroke="#38e0f5" stroke-linecap="round"></line><line x1="638.5808891222505" x2="625.0950489354138" y1="79.82572651251274" y2="93.31156669934938" stroke-width="5" stroke="#38e0f5" stroke-linecap="round"></line><line x1="55.282770182867715" x2="40.539331239428954" y1="97.4763355333727" y2="112.21977447681145" stroke-width="5" stroke="#38e0f5" stroke-linecap="round"></line><line x1="55.282770182867715" x2="40.539331239428954" y1="-414.5236644666273" y2="-399.78022552318856" stroke-width="5" stroke="#38e0f5" stroke-linecap="round"></line><line x1="311.2827701828677" x2="296.539331239429" y1="-414.5236644666273" y2="-399.78022552318856" stroke-width="5" stroke="#38e0f5" stroke-linecap="round"></line><line x1="567.2827701828677" x2="552.539331239429" y1="-414.5236644666273" y2="-399.78022552318856" stroke-width="5" stroke="#38e0f5" stroke-linecap="round"></line><line x1="55.282770182867715" x2="40.539331239428954" y1="-158.52366446662728" y2="-143.78022552318856" stroke-width="5" stroke="#38e0f5" stroke-linecap="round"></line><line x1="311.2827701828677" x2="296.539331239429" y1="-158.52366446662728" y2="-143.78022552318856" stroke-width="5" stroke="#38e0f5" stroke-linecap="round"></line><line x1="567.2827701828677" x2="552.539331239429" y1="-158.52366446662728" y2="-143.78022552318856" stroke-width="5" stroke="#38e0f5" stroke-linecap="round"></line><line x1="55.282770182867715" x2="40.539331239428954" y1="97.4763355333727" y2="112.21977447681145" stroke-width="5" stroke="#38e0f5" stroke-linecap="round"></line><line x1="311.2827701828677" x2="296.539331239429" y1="97.4763355333727" y2="112.21977447681145" stroke-width="5" stroke="#38e0f5" stroke-linecap="round"></line><line x1="567.2827701828677" x2="552.539331239429" y1="97.4763355333727" y2="112.21977447681145" stroke-width="5" stroke="#38e0f5" stroke-linecap="round"></line><line x1="216.86947709097396" x2="195.09763202615775" y1="23.629070547959174" y2="45.40091561277538" stroke-width="5" stroke="#38e0f5" stroke-linecap="round"></line><line x1="216.86947709097396" x2="195.09763202615775" y1="-488.37092945204085" y2="-466.5990843872246" stroke-width="5" stroke="#38e0f5" stroke-linecap="round"></line><line x1="472.869477090974" x2="451.0976320261577" y1="-488.37092945204085" y2="-466.5990843872246" stroke-width="5" stroke="#38e0f5" stroke-linecap="round"></line><line x1="728.869477090974" x2="707.0976320261577" y1="-488.37092945204085" y2="-466.5990843872246" stroke-width="5" stroke="#38e0f5" stroke-linecap="round"></line><line x1="216.86947709097396" x2="195.09763202615775" y1="-232.37092945204083" y2="-210.59908438722462" stroke-width="5" stroke="#38e0f5" stroke-linecap="round"></line><line x1="472.869477090974" x2="451.0976320261577" y1="-232.37092945204083" y2="-210.59908438722462" stroke-width="5" stroke="#38e0f5" stroke-linecap="round"></line><line x1="728.869477090974" x2="707.0976320261577" y1="-232.37092945204083" y2="-210.59908438722462" stroke-width="5" stroke="#38e0f5" stroke-linecap="round"></line><line x1="216.86947709097396" x2="195.09763202615775" y1="23.629070547959174" y2="45.40091561277538" stroke-width="5" stroke="#38e0f5" stroke-linecap="round"></line><line x1="472.869477090974" x2="451.0976320261577" y1="23.629070547959174" y2="45.40091561277538" stroke-width="5" stroke="#38e0f5" stroke-linecap="round"></line><line x1="728.869477090974" x2="707.0976320261577" y1="23.629070547959174" y2="45.40091561277538" stroke-width="5" stroke="#38e0f5" stroke-linecap="round"></line>
  <animateTransform attributeName="transform" type="translate" values="0 0;-256 256" keyTimes="0;1" repeatCount="indefinite" dur="2.5s"></animateTransform>
</g><g>
  <line x1="112.91261756508754" x2="105.39869540899645" y1="239.58149743443846" y2="247.09541959052956" stroke-width="5" stroke="#a9f0f9" stroke-linecap="round"></line><line x1="112.91261756508754" x2="105.39869540899645" y1="-272.41850256556154" y2="-264.90458040947044" stroke-width="5" stroke="#a9f0f9" stroke-linecap="round"></line><line x1="368.91261756508754" x2="361.39869540899645" y1="-272.41850256556154" y2="-264.90458040947044" stroke-width="5" stroke="#a9f0f9" stroke-linecap="round"></line><line x1="624.9126175650875" x2="617.3986954089964" y1="-272.41850256556154" y2="-264.90458040947044" stroke-width="5" stroke="#a9f0f9" stroke-linecap="round"></line><line x1="112.91261756508754" x2="105.39869540899645" y1="-16.41850256556154" y2="-8.90458040947044" stroke-width="5" stroke="#a9f0f9" stroke-linecap="round"></line><line x1="368.91261756508754" x2="361.39869540899645" y1="-16.41850256556154" y2="-8.90458040947044" stroke-width="5" stroke="#a9f0f9" stroke-linecap="round"></line><line x1="624.9126175650875" x2="617.3986954089964" y1="-16.41850256556154" y2="-8.90458040947044" stroke-width="5" stroke="#a9f0f9" stroke-linecap="round"></line><line x1="112.91261756508754" x2="105.39869540899645" y1="239.58149743443846" y2="247.09541959052956" stroke-width="5" stroke="#a9f0f9" stroke-linecap="round"></line><line x1="368.91261756508754" x2="361.39869540899645" y1="239.58149743443846" y2="247.09541959052956" stroke-width="5" stroke="#a9f0f9" stroke-linecap="round"></line><line x1="624.9126175650875" x2="617.3986954089964" y1="239.58149743443846" y2="247.09541959052956" stroke-width="5" stroke="#a9f0f9" stroke-linecap="round"></line><line x1="38.646053933225716" x2="26.196463146084536" y1="192.24105099065818" y2="204.69064177779936" stroke-width="5" stroke="#a9f0f9" stroke-linecap="round"></line><line x1="38.646053933225716" x2="26.196463146084536" y1="-319.7589490093418" y2="-307.3093582222007" stroke-width="5" stroke="#a9f0f9" stroke-linecap="round"></line><line x1="294.64605393322574" x2="282.1964631460845" y1="-319.7589490093418" y2="-307.3093582222007" stroke-width="5" stroke="#a9f0f9" stroke-linecap="round"></line><line x1="550.6460539332257" x2="538.1964631460845" y1="-319.7589490093418" y2="-307.3093582222007" stroke-width="5" stroke="#a9f0f9" stroke-linecap="round"></line><line x1="38.646053933225716" x2="26.196463146084536" y1="-63.75894900934182" y2="-51.30935822220064" stroke-width="5" stroke="#a9f0f9" stroke-linecap="round"></line><line x1="294.64605393322574" x2="282.1964631460845" y1="-63.75894900934182" y2="-51.30935822220064" stroke-width="5" stroke="#a9f0f9" stroke-linecap="round"></line><line x1="550.6460539332257" x2="538.1964631460845" y1="-63.75894900934182" y2="-51.30935822220064" stroke-width="5" stroke="#a9f0f9" stroke-linecap="round"></line><line x1="38.646053933225716" x2="26.196463146084536" y1="192.24105099065818" y2="204.69064177779936" stroke-width="5" stroke="#a9f0f9" stroke-linecap="round"></line><line x1="294.64605393322574" x2="282.1964631460845" y1="192.24105099065818" y2="204.69064177779936" stroke-width="5" stroke="#a9f0f9" stroke-linecap="round"></line><line x1="550.6460539332257" x2="538.1964631460845" y1="192.24105099065818" y2="204.69064177779936" stroke-width="5" stroke="#a9f0f9" stroke-linecap="round"></line><line x1="100.29973995880634" x2="87.83642840892885" y1="8.802262348256154" y2="21.265573898133635" stroke-width="5" stroke="#a9f0f9" stroke-linecap="round"></line><line x1="100.29973995880634" x2="87.83642840892885" y1="-503.19773765174386" y2="-490.73442610186635" stroke-width="5" stroke="#a9f0f9" stroke-linecap="round"></line><line x1="356.29973995880636" x2="343.83642840892884" y1="-503.19773765174386" y2="-490.73442610186635" stroke-width="5" stroke="#a9f0f9" stroke-linecap="round"></line><line x1="612.2997399588063" x2="599.8364284089289" y1="-503.19773765174386" y2="-490.73442610186635" stroke-width="5" stroke="#a9f0f9" stroke-linecap="round"></line><line x1="100.29973995880634" x2="87.83642840892885" y1="-247.19773765174384" y2="-234.73442610186638" stroke-width="5" stroke="#a9f0f9" stroke-linecap="round"></line><line x1="356.29973995880636" x2="343.83642840892884" y1="-247.19773765174384" y2="-234.73442610186638" stroke-width="5" stroke="#a9f0f9" stroke-linecap="round"></line><line x1="612.2997399588063" x2="599.8364284089289" y1="-247.19773765174384" y2="-234.73442610186638" stroke-width="5" stroke="#a9f0f9" stroke-linecap="round"></line><line x1="100.29973995880634" x2="87.83642840892885" y1="8.802262348256154" y2="21.265573898133635" stroke-width="5" stroke="#a9f0f9" stroke-linecap="round"></line><line x1="356.29973995880636" x2="343.83642840892884" y1="8.802262348256154" y2="21.265573898133635" stroke-width="5" stroke="#a9f0f9" stroke-linecap="round"></line><line x1="612.2997399588063" x2="599.8364284089289" y1="8.802262348256154" y2="21.265573898133635" stroke-width="5" stroke="#a9f0f9" stroke-linecap="round"></line><line x1="109.52583102215522" x2="102.50119072432506" y1="153.21808649283787" y2="160.24272679066803" stroke-width="5" stroke="#a9f0f9" stroke-linecap="round"></line><line x1="109.52583102215522" x2="102.50119072432506" y1="-358.78191350716213" y2="-351.75727320933197" stroke-width="5" stroke="#a9f0f9" stroke-linecap="round"></line><line x1="365.5258310221552" x2="358.50119072432506" y1="-358.78191350716213" y2="-351.75727320933197" stroke-width="5" stroke="#a9f0f9" stroke-linecap="round"></line><line x1="621.5258310221552" x2="614.501190724325" y1="-358.78191350716213" y2="-351.75727320933197" stroke-width="5" stroke="#a9f0f9" stroke-linecap="round"></line><line x1="109.52583102215522" x2="102.50119072432506" y1="-102.78191350716213" y2="-95.75727320933197" stroke-width="5" stroke="#a9f0f9" stroke-linecap="round"></line><line x1="365.5258310221552" x2="358.50119072432506" y1="-102.78191350716213" y2="-95.75727320933197" stroke-width="5" stroke="#a9f0f9" stroke-linecap="round"></line><line x1="621.5258310221552" x2="614.501190724325" y1="-102.78191350716213" y2="-95.75727320933197" stroke-width="5" stroke="#a9f0f9" stroke-linecap="round"></line><line x1="109.52583102215522" x2="102.50119072432506" y1="153.21808649283787" y2="160.24272679066803" stroke-width="5" stroke="#a9f0f9" stroke-linecap="round"></line><line x1="365.5258310221552" x2="358.50119072432506" y1="153.21808649283787" y2="160.24272679066803" stroke-width="5" stroke="#a9f0f9" stroke-linecap="round"></line><line x1="621.5258310221552" x2="614.501190724325" y1="153.21808649283787" y2="160.24272679066803" stroke-width="5" stroke="#a9f0f9" stroke-linecap="round"></line><line x1="98.78795059654568" x2="69.75078920273403" y1="-7.579138063887134" y2="21.458023329924536" stroke-width="5" stroke="#a9f0f9" stroke-linecap="round"></line><line x1="98.78795059654568" x2="69.75078920273403" y1="-519.5791380638872" y2="-490.5419766700755" stroke-width="5" stroke="#a9f0f9" stroke-linecap="round"></line><line x1="354.78795059654567" x2="325.75078920273404" y1="-519.5791380638872" y2="-490.5419766700755" stroke-width="5" stroke="#a9f0f9" stroke-linecap="round"></line><line x1="610.7879505965457" x2="581.750789202734" y1="-519.5791380638872" y2="-490.5419766700755" stroke-width="5" stroke="#a9f0f9" stroke-linecap="round"></line><line x1="98.78795059654568" x2="69.75078920273403" y1="-263.5791380638871" y2="-234.54197667007546" stroke-width="5" stroke="#a9f0f9" stroke-linecap="round"></line><line x1="354.78795059654567" x2="325.75078920273404" y1="-263.5791380638871" y2="-234.54197667007546" stroke-width="5" stroke="#a9f0f9" stroke-linecap="round"></line><line x1="610.7879505965457" x2="581.750789202734" y1="-263.5791380638871" y2="-234.54197667007546" stroke-width="5" stroke="#a9f0f9" stroke-linecap="round"></line><line x1="98.78795059654568" x2="69.75078920273403" y1="-7.579138063887134" y2="21.458023329924536" stroke-width="5" stroke="#a9f0f9" stroke-linecap="round"></line><line x1="354.78795059654567" x2="325.75078920273404" y1="-7.579138063887134" y2="21.458023329924536" stroke-width="5" stroke="#a9f0f9" stroke-linecap="round"></line><line x1="610.7879505965457" x2="581.750789202734" y1="-7.579138063887134" y2="21.458023329924536" stroke-width="5" stroke="#a9f0f9" stroke-linecap="round"></line><line x1="98.78795059654568" x2="69.75078920273403" y1="248.42086193611286" y2="277.4580233299245" stroke-width="5" stroke="#a9f0f9" stroke-linecap="round"></line><line x1="100.64877732825613" x2="73.93905716779824" y1="123.12237432145417" y2="149.83209448191207" stroke-width="5" stroke="#a9f0f9" stroke-linecap="round"></line><line x1="100.64877732825613" x2="73.93905716779824" y1="-388.8776256785458" y2="-362.16790551808793" stroke-width="5" stroke="#a9f0f9" stroke-linecap="round"></line><line x1="356.64877732825613" x2="329.93905716779824" y1="-388.8776256785458" y2="-362.16790551808793" stroke-width="5" stroke="#a9f0f9" stroke-linecap="round"></line><line x1="612.6487773282561" x2="585.9390571677982" y1="-388.8776256785458" y2="-362.16790551808793" stroke-width="5" stroke="#a9f0f9" stroke-linecap="round"></line><line x1="100.64877732825613" x2="73.93905716779824" y1="-132.87762567854583" y2="-106.16790551808793" stroke-width="5" stroke="#a9f0f9" stroke-linecap="round"></line><line x1="356.64877732825613" x2="329.93905716779824" y1="-132.87762567854583" y2="-106.16790551808793" stroke-width="5" stroke="#a9f0f9" stroke-linecap="round"></line><line x1="612.6487773282561" x2="585.9390571677982" y1="-132.87762567854583" y2="-106.16790551808793" stroke-width="5" stroke="#a9f0f9" stroke-linecap="round"></line><line x1="100.64877732825613" x2="73.93905716779824" y1="123.12237432145417" y2="149.83209448191207" stroke-width="5" stroke="#a9f0f9" stroke-linecap="round"></line><line x1="356.64877732825613" x2="329.93905716779824" y1="123.12237432145417" y2="149.83209448191207" stroke-width="5" stroke="#a9f0f9" stroke-linecap="round"></line><line x1="612.6487773282561" x2="585.9390571677982" y1="123.12237432145417" y2="149.83209448191207" stroke-width="5" stroke="#a9f0f9" stroke-linecap="round"></line><line x1="135.53351290426443" x2="119.49709972340541" y1="56.040184396361084" y2="72.07659757722008" stroke-width="5" stroke="#a9f0f9" stroke-linecap="round"></line><line x1="135.53351290426443" x2="119.49709972340541" y1="-455.9598156036389" y2="-439.92340242277993" stroke-width="5" stroke="#a9f0f9" stroke-linecap="round"></line><line x1="391.5335129042644" x2="375.4970997234054" y1="-455.9598156036389" y2="-439.92340242277993" stroke-width="5" stroke="#a9f0f9" stroke-linecap="round"></line><line x1="647.5335129042644" x2="631.4970997234054" y1="-455.9598156036389" y2="-439.92340242277993" stroke-width="5" stroke="#a9f0f9" stroke-linecap="round"></line><line x1="135.53351290426443" x2="119.49709972340541" y1="-199.9598156036389" y2="-183.92340242277993" stroke-width="5" stroke="#a9f0f9" stroke-linecap="round"></line><line x1="391.5335129042644" x2="375.4970997234054" y1="-199.9598156036389" y2="-183.92340242277993" stroke-width="5" stroke="#a9f0f9" stroke-linecap="round"></line><line x1="647.5335129042644" x2="631.4970997234054" y1="-199.9598156036389" y2="-183.92340242277993" stroke-width="5" stroke="#a9f0f9" stroke-linecap="round"></line><line x1="135.53351290426443" x2="119.49709972340541" y1="56.040184396361084" y2="72.07659757722008" stroke-width="5" stroke="#a9f0f9" stroke-linecap="round"></line><line x1="391.5335129042644" x2="375.4970997234054" y1="56.040184396361084" y2="72.07659757722008" stroke-width="5" stroke="#a9f0f9" stroke-linecap="round"></line><line x1="647.5335129042644" x2="631.4970997234054" y1="56.040184396361084" y2="72.07659757722008" stroke-width="5" stroke="#a9f0f9" stroke-linecap="round"></line><line x1="46.257705414196934" x2="16.7517509197054" y1="148.35811509549228" y2="177.86406958998384" stroke-width="5" stroke="#a9f0f9" stroke-linecap="round"></line><line x1="46.257705414196934" x2="16.7517509197054" y1="-363.6418849045077" y2="-334.13593041001616" stroke-width="5" stroke="#a9f0f9" stroke-linecap="round"></line><line x1="302.25770541419695" x2="272.7517509197054" y1="-363.6418849045077" y2="-334.13593041001616" stroke-width="5" stroke="#a9f0f9" stroke-linecap="round"></line><line x1="558.257705414197" x2="528.7517509197054" y1="-363.6418849045077" y2="-334.13593041001616" stroke-width="5" stroke="#a9f0f9" stroke-linecap="round"></line><line x1="46.257705414196934" x2="16.7517509197054" y1="-107.64188490450772" y2="-78.13593041001616" stroke-width="5" stroke="#a9f0f9" stroke-linecap="round"></line><line x1="302.25770541419695" x2="272.7517509197054" y1="-107.64188490450772" y2="-78.13593041001616" stroke-width="5" stroke="#a9f0f9" stroke-linecap="round"></line><line x1="558.257705414197" x2="528.7517509197054" y1="-107.64188490450772" y2="-78.13593041001616" stroke-width="5" stroke="#a9f0f9" stroke-linecap="round"></line><line x1="46.257705414196934" x2="16.7517509197054" y1="148.35811509549228" y2="177.86406958998384" stroke-width="5" stroke="#a9f0f9" stroke-linecap="round"></line><line x1="302.25770541419695" x2="272.7517509197054" y1="148.35811509549228" y2="177.86406958998384" stroke-width="5" stroke="#a9f0f9" stroke-linecap="round"></line><line x1="558.257705414197" x2="528.7517509197054" y1="148.35811509549228" y2="177.86406958998384" stroke-width="5" stroke="#a9f0f9" stroke-linecap="round"></line><line x1="208.53165467290358" x2="181.0932573259417" y1="98.16276867123453" y2="125.6011660181964" stroke-width="5" stroke="#a9f0f9" stroke-linecap="round"></line><line x1="208.53165467290358" x2="181.0932573259417" y1="-413.8372313287655" y2="-386.3988339818036" stroke-width="5" stroke="#a9f0f9" stroke-linecap="round"></line><line x1="464.5316546729036" x2="437.0932573259417" y1="-413.8372313287655" y2="-386.3988339818036" stroke-width="5" stroke="#a9f0f9" stroke-linecap="round"></line><line x1="720.5316546729036" x2="693.0932573259417" y1="-413.8372313287655" y2="-386.3988339818036" stroke-width="5" stroke="#a9f0f9" stroke-linecap="round"></line><line x1="208.53165467290358" x2="181.0932573259417" y1="-157.83723132876548" y2="-130.3988339818036" stroke-width="5" stroke="#a9f0f9" stroke-linecap="round"></line><line x1="464.5316546729036" x2="437.0932573259417" y1="-157.83723132876548" y2="-130.3988339818036" stroke-width="5" stroke="#a9f0f9" stroke-linecap="round"></line><line x1="720.5316546729036" x2="693.0932573259417" y1="-157.83723132876548" y2="-130.3988339818036" stroke-width="5" stroke="#a9f0f9" stroke-linecap="round"></line><line x1="208.53165467290358" x2="181.0932573259417" y1="98.16276867123453" y2="125.6011660181964" stroke-width="5" stroke="#a9f0f9" stroke-linecap="round"></line><line x1="464.5316546729036" x2="437.0932573259417" y1="98.16276867123453" y2="125.6011660181964" stroke-width="5" stroke="#a9f0f9" stroke-linecap="round"></line><line x1="720.5316546729036" x2="693.0932573259417" y1="98.16276867123453" y2="125.6011660181964" stroke-width="5" stroke="#a9f0f9" stroke-linecap="round"></line><line x1="51.42075167198577" x2="29.331912589900142" y1="23.95538751028569" y2="46.04422659237132" stroke-width="5" stroke="#a9f0f9" stroke-linecap="round"></line><line x1="51.42075167198577" x2="29.331912589900142" y1="-488.0446124897143" y2="-465.95577340762867" stroke-width="5" stroke="#a9f0f9" stroke-linecap="round"></line><line x1="307.4207516719858" x2="285.3319125899001" y1="-488.0446124897143" y2="-465.95577340762867" stroke-width="5" stroke="#a9f0f9" stroke-linecap="round"></line><line x1="563.4207516719857" x2="541.3319125899002" y1="-488.0446124897143" y2="-465.95577340762867" stroke-width="5" stroke="#a9f0f9" stroke-linecap="round"></line><line x1="51.42075167198577" x2="29.331912589900142" y1="-232.04461248971432" y2="-209.95577340762867" stroke-width="5" stroke="#a9f0f9" stroke-linecap="round"></line><line x1="307.4207516719858" x2="285.3319125899001" y1="-232.04461248971432" y2="-209.95577340762867" stroke-width="5" stroke="#a9f0f9" stroke-linecap="round"></line><line x1="563.4207516719857" x2="541.3319125899002" y1="-232.04461248971432" y2="-209.95577340762867" stroke-width="5" stroke="#a9f0f9" stroke-linecap="round"></line><line x1="51.42075167198577" x2="29.331912589900142" y1="23.95538751028569" y2="46.04422659237132" stroke-width="5" stroke="#a9f0f9" stroke-linecap="round"></line><line x1="307.4207516719858" x2="285.3319125899001" y1="23.95538751028569" y2="46.04422659237132" stroke-width="5" stroke="#a9f0f9" stroke-linecap="round"></line><line x1="563.4207516719857" x2="541.3319125899002" y1="23.95538751028569" y2="46.04422659237132" stroke-width="5" stroke="#a9f0f9" stroke-linecap="round"></line>
  <animateTransform attributeName="transform" type="translate" values="0 0;-256 256" keyTimes="0;1" repeatCount="indefinite" dur="1.6666666666666665s"></animateTransform>
</g></g>
  </pattern>
</defs>
<rect x="0" y="0" width="518.390625" height="322" fill="url(#pid-0.6846807595468851)"></rect>
</svg>